<?xml version="1.0" encoding="utf-8"?>
<!-- Generator: Adobe Illustrator 26.0.1, SVG Export Plug-In . SVG Version: 6.00 Build 0)  -->
<svg version="1.1" id="Layer_1" xmlns="http://www.w3.org/2000/svg" xmlns:xlink="http://www.w3.org/1999/xlink" x="0px" y="0px"
	 viewBox="0 0 229 95" style="enable-background:new 0 0 229 95;" xml:space="preserve">
<style type="text/css">
	.st0{fill:#003DA5;}
	.st1{fill:#D50032;}
</style>
<path class="st0" d="M225,60.8c2.1,0,4,1.7,4,4.1c0,2.3-1.8,4.1-4,4.1c-2.2,0-4-1.7-4-4.1C221,62.6,222.9,60.8,225,60.8z M225,68.4
	c1.8,0,3.3-1.5,3.3-3.5c0-2-1.4-3.5-3.3-3.5c-1.8,0-3.3,1.5-3.3,3.5C221.8,66.8,223.2,68.4,225,68.4z M223.5,62.5h1.8
	c1.1,0,1.6,0.5,1.6,1.4c0,0.8-0.5,1.2-1.3,1.3l1.3,2.1h-0.8l-1.3-2h-0.7v2h-0.7L223.5,62.5L223.5,62.5z M224.2,64.6h0.7
	c0.7,0,1.3,0,1.3-0.8c0-0.6-0.5-0.8-1-0.8h-1V64.6z"/>
<path class="st1" d="M221.8,15.9h-92.9L66.5,0L0,18.5l1.7,6.4L66.5,6.9l61.6,15.7h93.7V15.9z"/>
<path class="st0" d="M54.1,33.4H48v2.7h4.8v3.5H48v3.2h6v3.5H43.7V29.8h10.3V33.4z"/>
<path class="st0" d="M78,29.8h-4.4v16.5H78V29.8z"/>
<path class="st0" d="M190.3,29.8h-4.4v16.5h4.4V29.8z"/>
<path class="st0" d="M140.9,46.3h-4.4V29.8h10.3v3.5h-6v2.7h4.8v3.5h-4.8V46.3z"/>
<path class="st0" d="M194.6,46.3h10.3v-4.1h-6V29.8h-4.3V46.3z"/>
<path class="st0" d="M120.8,29.8v9l-4.4-9h-4.9v16.5h4.2v-9l4.4,9h4.9V29.8H120.8z"/>
<path class="st0" d="M15,29.8l5.5,16.5H16l-1.1-3.2h-4.5l-1.1,3.2H5.2l5.5-16.5H15z M13.9,39.6l-1.2-3.7l-1.2,3.7H13.9z"/>
<path class="st0" d="M104.1,29.8l5.5,16.5h-4.4l-1.1-3.2h-4.5l-1.1,3.2h-4.1l5.5-16.5H104.1z M103,39.6l-1.2-3.7l-1.2,3.7H103z"/>
<path class="st0" d="M157,29.8l5.5,16.5h-4.4l-1.1-3.2h-4.5l-1.1,3.2h-4.1l5.5-16.5H157z M155.9,39.6l-1.2-3.7l-1.2,3.7H155.9z"/>
<path class="st0" d="M64.1,40.9l2,5.4h4.1l-2.4-6.7c1.6-0.9,2.4-2.3,2.4-4.6c0-1.7-0.5-3.2-1.7-4.1c-1-0.8-2.4-1.1-3.6-1.1h-7.2
	v16.5h4.4v-5.4H64.1z M62.1,36.9v-3.3h1.8c0.4,0,0.9,0,1.3,0.2c0.4,0.3,0.7,0.8,0.7,1.4c0,1.5-1.1,1.7-2.1,1.7H62.1z"/>
<path class="st0" d="M213.9,29.8l-3.1,6l-3.2-6h-4.2l5.2,10.1v6.4h4.4v-6.4l5.2-10.1H213.9z"/>
<path class="st0" d="M35.8,46.3v-7.5l-2.9,7.5h-3.1l-2.9-7.5v7.5h-4.2V29.8h4.9l3.8,9.9l3.8-9.9H40v16.5H35.8z"/>
<path class="st0" d="M177.4,46.3v-7.5l-2.9,7.5h-3.1l-2.9-7.5v7.5h-4.2V29.8h4.9l3.8,9.9l3.8-9.9h4.8v16.5H177.4z"/>
<path class="st0" d="M91.2,34.5c-0.7-0.7-1.4-1.1-2.3-1.1c-2,0-3.7,2.1-3.7,4.7c0,2.5,1.7,4.7,3.7,4.7c0.9,0,1.7-0.4,2.3-1.1
	l2.3,2.8c-1.3,1.4-3.1,2.3-5,2.3c-4.1,0-7.4-3.9-7.4-8.7s3.3-8.7,7.4-8.7c1.9,0,3.7,0.9,5,2.3L91.2,34.5z"/>
<path class="st0" d="M5.2,49.7h212.8V69H5.2V49.7z M108.9,61.1l2,3.4h4.3l-2.5-4.2c1.7-0.6,2.5-1.4,2.5-2.9c0-1.1-0.6-2-1.8-2.6
	c-1-0.5-2.4-0.7-3.7-0.7h-8.1v10.5h4.4v-3.4L108.9,61.1L108.9,61.1z M108.6,58.5c1,0,2.1-0.1,2.1-1.1c0-0.4-0.2-0.8-0.7-0.9
	c-0.4-0.2-0.8-0.2-1.3-0.2H106v2.1H108.6L108.6,58.5z M22.7,64.5H27V54.1h-4.4V64.5L22.7,64.5z M129.7,57.3l-1.3,3.5h2.6L129.7,57.3
	z M122.3,64.5h4.7l0.4-1.2h4.5l0.4,1.2h4.7L132.3,54H127L122.3,64.5z M175.5,60.4c-0.4,1.3-1.2,1.8-2.5,1.8c-1.6,0-2.7-0.8-2.7-2.9
	s1.1-2.9,2.9-2.9c1.7,0,2.2,1.1,2.3,1.8h4.9c-0.6-4.1-4.6-4.4-7.2-4.4c-2.7,0-7.5,0.2-7.5,5.6s4.9,5.6,7.5,5.6
	c2.7,0,4.3-0.5,5.4-1.2c1.1-0.8,1.6-1.9,1.8-3.2H175.5L175.5,60.4z M188.4,64.5h12.3v-2.6h-7.9v-1.4h7.4V58h-7.4v-1.4h7.9V54h-12.3
	V64.5z M36.4,64.5h4.1v-5.2l4.7,5.2h4.7V54.1h-4.1v5.1h-0.1l-4.4-5.1h-5L36.4,64.5L36.4,64.5z M144.5,64.5h4.1v-5.2l4.7,5.2h4.7
	V54.1h-4.1v5.1h-0.1l-4.4-5.1h-5L144.5,64.5L144.5,64.5z M79.4,60.6c0,3.3,2.6,4.3,7,4.3s7-1,7-4.3v-6.5H89v6.3
	c0,1.4-1.3,1.7-2.7,1.7s-2.7-0.5-2.7-1.7v-6.3h-4.4V60.6z M66,60.8c0.6,0.1,0.8,0.4,0.8,0.7c0,0.5-0.4,0.8-1.7,0.8
	c-0.7,0-1.2-0.1-1.5-0.2c-0.3-0.2-0.4-0.4-0.4-0.8h-5.2c0,3.1,3.7,3.5,7,3.5c4.9,0,7.1-1.2,7.1-3.8c0-1.7-1.3-2.7-3.5-3l-5.2-0.8
	c-0.4-0.1-0.6-0.2-0.6-0.5c0-0.5,0.4-0.8,1.8-0.8c0.4,0,1,0.1,1.3,0.2c0.4,0.2,0.7,0.4,0.7,0.8h5c-0.1-2.2-2.1-3.4-7.1-3.4
	c-3.5,0-6.4,0.8-6.4,3.5c0,1.4,0.9,2.6,3,2.9L66,60.8z"/>
<path class="st0" d="M5.3,92.2V80h2.6v12.2H5.3z"/>
<path class="st0" d="M13.8,92.2v-6.3c0-0.6-0.4-1-0.8-1c-0.7,0-1.1,0.9-1.1,1.5v5.8H9.7v-8.8h1.9l0.2,1.7c0.4-1.2,1.2-1.8,2.2-1.8
	c1.4,0,2.1,1,2.1,2.5v6.5H13.8z"/>
<path class="st0" d="M20.4,92.3c-2,0-3-1.2-3-2.8v-0.3h1.8v0.3c0,0.8,0.5,1.2,1.1,1.2c0.7,0,1.1-0.3,1.1-0.8c0-0.8-0.8-1.1-2-1.6
	c-1.2-0.5-2-1.2-2-2.5c0-1.6,1.2-2.6,2.9-2.6c1.8,0,2.9,1.1,2.9,2.7V86h-1.8v-0.2c0-0.5-0.3-0.9-1.1-0.9c-0.6,0-0.9,0.2-0.9,0.8
	c0,0.5,0.5,0.8,1.4,1.2c1.4,0.5,2.4,1.2,2.4,2.8C23.4,91,22.5,92.3,20.4,92.3z"/>
<path class="st0" d="M29.3,92.2l-0.1-1.5c-0.5,1.2-1.3,1.7-2.3,1.7c-1.4,0-2.1-1-2.1-2.5v-6.5H27v6.3c0,0.6,0.4,1,0.8,1
	c0.7,0,1.1-0.9,1.1-1.5v-5.8h2.2v8.8H29.3z"/>
<path class="st0" d="M35,86.7v5.5h-2.2v-8.8h1.8l0.2,1.8c0.4-1.5,1.3-2.1,2.6-1.8v2.2C35.6,85.2,35,85.8,35,86.7z"/>
<path class="st0" d="M41.4,92.3c-1.8,0-3.1-1.2-3.1-3.1v-3c0-1.8,1.2-3.1,3.1-3.1c1.9,0,3,1.2,3,3.1v1.6h-4v1.7c0,0.6,0.3,1.1,1,1.1
	c0.7,0,1-0.4,1-1.1V89h2v0.3C44.3,91.1,43.2,92.3,41.4,92.3z M42.3,85.9c0-0.6-0.4-1.1-1-1.1c-0.6,0-1,0.4-1,1.1V87h2V85.9
	L42.3,85.9z"/>
<path class="st0" d="M52,92.3c-1.8,0-3.1-1.2-3.1-3.1v-2.8c0-1.9,1.2-3.1,3.1-3.1c1.8,0,2.9,1.2,2.9,3.1v0.3h-1.8V86
	c0-0.7-0.4-1.1-1-1.1c-0.7,0-1.1,0.4-1.1,1.2v3.5c0,0.8,0.4,1.2,1.1,1.2c0.7,0,1-0.5,1-1.1V89h1.8v0.3C55,91.2,53.9,92.3,52,92.3z"
	/>
<path class="st0" d="M62.2,92.3c-0.8,0-1.4-0.4-1.7-1.3c-0.5,0.8-1.3,1.3-2.3,1.3c-1.3,0-2.3-0.8-2.3-2.4v-0.1
	c0-1.9,1.7-2.5,4.1-2.9v-1.2c0-0.5-0.3-0.8-0.8-0.8c-0.6,0-0.8,0.3-0.8,0.8v0.5h-2v-0.4c0-1.5,0.9-2.7,2.9-2.7c2,0,2.9,1.3,2.9,2.9
	v4.1c0,0.3,0.2,0.5,0.5,0.5v1.5L62.2,92.3L62.2,92.3z M60,88.1c-1.4,0.2-2,0.6-2,1.5v0.3c0,0.5,0.3,0.8,0.8,0.8c0.6,0,1.1-0.4,1.1-1
	V88.1z"/>
<path class="st0" d="M66.2,86.7v5.5H64v-8.8h1.8l0.2,1.8c0.4-1.5,1.3-2.1,2.6-1.8v2.2C66.8,85.2,66.2,85.8,66.2,86.7z"/>
<path class="st0" d="M72.5,92.3c-1.8,0-3.1-1.2-3.1-3.1v-3c0-1.8,1.2-3.1,3.1-3.1c1.9,0,3,1.2,3,3.1v1.6h-4v1.7c0,0.6,0.3,1.1,1,1.1
	c0.7,0,1-0.4,1-1.1V89h2v0.3C75.5,91.1,74.4,92.3,72.5,92.3z M73.5,85.9c0-0.6-0.4-1.1-1-1.1c-0.6,0-1,0.4-1,1.1V87h2V85.9z"/>
<path class="st0" d="M79.9,85.2v7h-2.2v-7h-1.1v-1.8h1.1V83c0-1.8,0.9-3,2.9-3h0.8v1.7H81c-0.8,0-1.1,0.4-1.1,1.2v0.8h1.4v1.8h-1.4
	V85.2z"/>
<path class="st0" d="M86.9,92.2l-0.1-1.5c-0.5,1.2-1.3,1.7-2.3,1.7c-1.4,0-2.1-1-2.1-2.5v-6.5h2.2v6.3c0,0.6,0.4,1,0.8,1
	c0.7,0,1.1-0.9,1.1-1.5v-5.8h2.2v8.8H86.9z"/>
<path class="st0" d="M90.4,92.2V80h2.2v12.2H90.4z"/>
<path class="st0" d="M94.4,92.2V80h2.2v12.2H94.4z"/>
<path class="st0" d="M101.9,92.2c-0.5,1.7-1,2.8-2.9,2.8h-0.7v-1.6h0.5c0.8,0,1-0.2,1.1-0.9L100,92l-2.4-8.7h2.1l1,4.4l0.3,1.7
	l0.3-1.7l0.9-4.4h2L101.9,92.2z"/>
<path class="st0" d="M104.2,94v-0.6c0.7,0,1.1-0.5,1.1-1.3h-0.9v-2.5h2v2.2C106.4,93.1,105.7,94,104.2,94z"/>
<path class="st0" d="M115.9,92.2l-0.1-1.2c-0.5,0.9-1.3,1.3-2.1,1.3c-1.5,0-2.4-1.2-2.4-2.8V86c0-1.5,1-2.8,2.2-2.8
	c0.9,0,1.4,0.3,1.9,0.9v-4.2h2.2v12.2L115.9,92.2L115.9,92.2z M115.4,86c0-0.7-0.4-1.2-1-1.2c-0.6,0-1,0.4-1,1.2v3.3
	c0,0.8,0.4,1.2,1,1.2c0.5,0,1-0.4,1-1.2V86z"/>
<path class="st0" d="M121.5,86.7v5.5h-2.2v-8.8h1.8l0.2,1.8c0.4-1.5,1.3-2.1,2.6-1.8v2.2C122.1,85.2,121.5,85.8,121.5,86.7z"/>
<path class="st0" d="M127.8,92.3c-1.8,0-3.1-1.2-3.1-3.1v-3c0-1.8,1.2-3.1,3.1-3.1c1.9,0,3,1.2,3,3.1v1.6h-4v1.7
	c0,0.6,0.3,1.1,1,1.1c0.7,0,1-0.4,1-1.1V89h2v0.3C130.8,91.1,129.7,92.3,127.8,92.3z M128.8,85.9c0-0.6-0.4-1.1-1-1.1s-1,0.4-1,1.1
	V87h2V85.9L128.8,85.9z"/>
<path class="st0" d="M138.1,92.3c-0.8,0-1.4-0.4-1.7-1.3c-0.5,0.8-1.3,1.3-2.3,1.3c-1.3,0-2.3-0.8-2.3-2.4v-0.1
	c0-1.9,1.7-2.5,4.1-2.9v-1.2c0-0.5-0.3-0.8-0.8-0.8c-0.6,0-0.8,0.3-0.8,0.8v0.5h-2v-0.4c0-1.5,0.9-2.7,2.9-2.7c2,0,2.9,1.3,2.9,2.9
	v4.1c0,0.3,0.2,0.5,0.5,0.5v1.5L138.1,92.3L138.1,92.3z M136,88.1c-1.4,0.2-2,0.6-2,1.5v0.3c0,0.5,0.3,0.8,0.8,0.8
	c0.6,0,1.1-0.4,1.1-1V88.1z"/>
<path class="st0" d="M147.6,92.2v-6.3c0-0.5-0.3-0.9-0.8-0.9c-0.7,0-0.9,0.9-0.9,1.5v5.8h-2.2v-6.4c0-0.5-0.3-0.9-0.8-0.9
	c-0.7,0-0.9,0.9-0.9,1.5v5.8H140v-8.8h1.9l0.2,1.7c0.4-1.2,1.1-1.8,2-1.8c0.9,0,1.5,0.6,1.8,1.7c0.4-1.2,1.1-1.7,2-1.7
	c1.3,0,2,0.9,2,2.5v6.5H147.6L147.6,92.2z"/>
<path class="st0" d="M157.6,85.2v7h-2.2v-7h-1.1v-1.8h1.1V83c0-1.8,0.9-3,2.9-3h0.8v1.7h-0.4c-0.8,0-1.1,0.4-1.1,1.2v0.8h1.4v1.8
	h-1.4V85.2z"/>
<path class="st0" d="M163,92.3c-1.8,0-3.1-1.2-3.1-3.1v-3c0-1.8,1.3-3.1,3.1-3.1c1.9,0,3,1.2,3,3.1v1.6h-4v1.7c0,0.6,0.3,1.1,1,1.1
	c0.7,0,1-0.4,1-1.1V89h2v0.3C166,91.1,164.9,92.3,163,92.3z M164,85.9c0-0.6-0.4-1.1-1-1.1c-0.6,0-1,0.4-1,1.1V87h2V85.9L164,85.9z"
	/>
<path class="st0" d="M173.3,92.3c-0.8,0-1.4-0.4-1.7-1.3c-0.5,0.8-1.3,1.3-2.3,1.3c-1.3,0-2.3-0.8-2.3-2.4v-0.1
	c0-1.9,1.7-2.5,4.1-2.9v-1.2c0-0.5-0.3-0.8-0.8-0.8c-0.6,0-0.8,0.3-0.8,0.8v0.5h-2v-0.4c0-1.5,0.9-2.7,2.9-2.7s2.9,1.3,2.9,2.9v4.1
	c0,0.3,0.2,0.5,0.5,0.5v1.5L173.3,92.3L173.3,92.3z M171.2,88.1c-1.4,0.2-2,0.6-2,1.5v0.3c0,0.5,0.3,0.8,0.8,0.8
	c0.6,0,1.1-0.4,1.1-1V88.1z"/>
<path class="st0" d="M177.3,86.7v5.5h-2.2v-8.8h1.8l0.2,1.8c0.4-1.5,1.3-2.1,2.6-1.8v2.2C177.9,85.2,177.3,85.8,177.3,86.7z"/>
<path class="st0" d="M180.9,92.2V80h2.2v12.2H180.9z"/>
<path class="st0" d="M187.7,92.3c-1.8,0-3.1-1.2-3.1-3.1v-3c0-1.8,1.3-3.1,3.1-3.1c1.9,0,3,1.2,3,3.1v1.6h-4v1.7
	c0,0.6,0.3,1.1,1,1.1c0.7,0,1-0.4,1-1.1V89h2v0.3C190.8,91.1,189.5,92.3,187.7,92.3z M188.7,85.9c0-0.6-0.4-1.1-1-1.1
	c-0.6,0-1,0.4-1,1.1V87h2V85.9L188.7,85.9z"/>
<path class="st0" d="M195,92.3c-2,0-3-1.2-3-2.8v-0.3h1.8v0.3c0,0.8,0.5,1.2,1.1,1.2c0.7,0,1.1-0.3,1.1-0.8c0-0.8-0.8-1.1-2-1.6
	c-1.2-0.5-2-1.2-2-2.5c0-1.6,1.2-2.6,2.9-2.6c1.8,0,2.9,1.1,2.9,2.7V86H196v-0.2c0-0.5-0.3-0.9-1.1-0.9c-0.6,0-0.9,0.2-0.9,0.8
	c0,0.5,0.4,0.8,1.4,1.2c1.4,0.5,2.4,1.2,2.4,2.8C197.9,91,197,92.3,195,92.3z"/>
<path class="st0" d="M202,92.3c-2,0-3-1.2-3-2.8v-0.3h1.8v0.3c0,0.8,0.5,1.2,1.1,1.2c0.7,0,1.1-0.3,1.1-0.8c0-0.8-0.8-1.1-2-1.6
	c-1.2-0.5-2-1.2-2-2.5c0-1.6,1.2-2.6,2.9-2.6c1.8,0,2.9,1.1,2.9,2.7V86H203v-0.2c0-0.5-0.3-0.9-1.1-0.9c-0.6,0-0.9,0.2-0.9,0.8
	c0,0.5,0.4,0.8,1.4,1.2c1.4,0.5,2.4,1.2,2.4,2.8C205,91,204,92.3,202,92.3z"/>
<path class="st0" d="M206.4,92.2V80h2.2v12.2H206.4z"/>
<path class="st0" d="M213.9,92.2c-0.5,1.7-1,2.8-2.9,2.8h-0.7v-1.6h0.5c0.8,0,1-0.2,1.1-0.9L212,92l-2.4-8.7h2.1l1,4.4l0.3,1.7
	l0.3-1.7l0.9-4.4h2.1L213.9,92.2z"/>
<path class="st0" d="M216.5,92.2v-2.5h2v2.5H216.5z"/>
</svg>
